<svg xmlns="http://www.w3.org/2000/svg" xmlns:xlink="http://www.w3.org/1999/xlink" version="1.1" x="0px" y="0px" viewBox="-252 375.9 90 90" style="enable-background:new -252 375.9 90 90;" xml:space="preserve"><g><path d="M-196,458.8c-2.9,0-5.9-0.6-8.8-2l-30.3-14.3c-1.8-0.9-3.2-2.4-3.9-4.3c-0.6-1.9-0.5-4,0.3-5.8   c0.1-0.3,0.4-0.6,0.8-0.8c3.1-1.9,9.3-2.8,12.9-1.2l-14-22.5c-1.1-1.7-1.4-3.8-1-5.7c0.4-1.9,1.7-3.7,3.4-4.7l0,0   c3.5-2.1,8.3-1.1,10.4,2.5l6.2,10.1c0.5-0.5,1.1-1.1,1.7-1.4c2.3-1.4,5.1-1.5,7.3-0.3c0.6-1.2,1.5-2.1,2.7-2.9   c2.3-1.4,5.1-1.5,7.3-0.3c0.6-1.2,1.5-2.1,2.7-2.9c1.8-1.1,4-1.4,6-0.9c1.9,0.5,3.5,1.7,4.5,3.4l11.1,20.2c5.4,9.9,1.9,20.6-4,26.9   C-184.9,456.3-190.4,458.8-196,458.8z M-235.5,434.5c-0.2,0.8-0.2,1.6,0.1,2.4c0.3,1,1.1,1.7,1.9,2.1l30.3,14.3   c8.2,3.9,15.7,0.3,20-4.2c4.9-5.3,8-14.3,3.4-22.5l-11.2-20.3c-0.4-0.8-1.2-1.4-2.1-1.6c-1.1-0.3-2.1-0.1-3.1,0.4   c-1.1,0.6-1.7,1.7-1.8,3c-0.1,0.8-0.5,1.4-1.3,1.7c-0.8,0.2-1.5,0-2-0.5c-1.2-1.4-3.3-1.7-4.9-0.8c-1.1,0.6-1.7,1.7-1.8,3   c-0.1,0.8-0.5,1.4-1.3,1.7c-0.8,0.2-1.5,0-2-0.5c-1.2-1.4-3.3-1.7-4.9-0.8c-0.9,0.5-1.5,1.4-1.7,2.5c-0.2,0.8-0.8,1.3-1.5,1.5   c-0.8,0.1-1.5-0.2-1.9-0.9l-8-12.9c-1.1-1.8-3.4-2.4-5.3-1.2c-0.9,0.5-1.5,1.4-1.7,2.4c-0.2,1-0.1,2,0.4,2.9l17.3,27.9   c0.4,0.8,0.3,1.6-0.2,2.3c-0.5,0.6-1.5,0.9-2.3,0.4l-5.4-3.1C-228.7,432.9-233.1,433.3-235.5,434.5z"></path></g><path d="M-225.8,390.5c0,0,0,0,0.1-0.1c0.1-0.1,0.2-0.2,0.4-0.3c0.3-0.2,0.8-0.6,1.5-0.9c1.3-0.7,3.1-1.7,5.4-2.6  c1.2-0.4,2.4-0.9,3.8-1.2c1.4-0.4,2.8-0.7,4.3-0.9c1.5-0.2,3.1-0.4,4.7-0.4c1.6,0,3.2,0,4.8,0.2c1.6,0.2,3.2,0.5,4.7,0.8  c0.8,0.2,1.5,0.4,2.2,0.6c0.7,0.2,1.4,0.5,2.1,0.8c1.4,0.6,2.7,1.1,3.9,1.8c0.6,0.3,1.2,0.6,1.7,0.9c0.5,0.3,1.1,0.6,1.6,0.9  c1,0.6,1.9,1.2,2.6,1.8c0.8,0.6,1.4,1,1.9,1.5c1,0.9,1.6,1.3,1.6,1.3s-0.6-0.4-1.8-1.1c-0.6-0.4-1.3-0.8-2.1-1.2  c-0.8-0.5-1.8-0.9-2.8-1.4c-0.5-0.3-1.1-0.5-1.6-0.7c-0.6-0.2-1.1-0.5-1.8-0.7c-1.2-0.5-2.5-0.9-3.9-1.2c-0.7-0.2-1.4-0.3-2.1-0.5  c-0.7-0.1-1.4-0.3-2.2-0.3c-1.5-0.2-2.9-0.3-4.4-0.2c-1.5,0-2.9,0.1-4.4,0.3c-1.4,0.2-2.8,0.5-4.1,0.9c-1.3,0.4-2.5,0.8-3.7,1.3  c-1.1,0.5-2.2,1-3.1,1.5c-1.9,1-3.4,2-4.3,2.8c-0.5,0.4-0.8,0.7-1.1,0.9c-0.1,0.1-0.2,0.2-0.2,0.2c-0.1,0.1-0.1,0.1-0.1,0.1  c-1.2,1.1-3.1,1.1-4.2-0.1c-1.1-1.2-1.1-3.1,0.1-4.2C-226,390.7-225.9,390.6-225.8,390.5z"></path></svg>